# xmcd CD database file
#
# Track frame offsets:
#	150
#	16800
#	33275
#	49212
#	61412
#	78075
#	91250
#	109850
#	120800
#	140587
#	150387
#	163625
#
# Disc length: 2359 seconds
#
# Revision: 1
# Processed by: cddbd v1.4PL0 Copyright (c) Steve Scherf et al.
# Submitted via: CDex 1.40Release
#
DISCID=8509350c
DTITLE=Tom Russell - Indian Cowboy (Country Expreﬂ Special)
DYEAR=1994
DGENRE=Country
TTITLE0=Black Pearl
TTITLE1=Bergenfield
TTITLE2=Teh Evangeline Hotel
TTITLE3=Indian Cowboy
TTITLE4=Beyond The Blues
TTITLE5=The Heart Of The Working Man
TTITLE6=The White Trash Song
TTITLE7=Rayburn Crane
TTITLE8=U.S. Steel
TTITLE9=Zane Grey
TTITLE10=Love Makes A Fool Of The Wise
TTITLE11=Jack Johnson
EXTD=YEAR: 1994 ID3G: 2
EXTT0=
EXTT1=
EXTT2=
EXTT3=
EXTT4=
EXTT5=
EXTT6=
EXTT7=
EXTT8=
EXTT9=
EXTT10=
EXTT11=
PLAYORDER=
